<svg width="28" height="28" viewBox="0 0 28 28" fill="none" xmlns="http://www.w3.org/2000/svg">
<path d="M18 14C17.9931 13.4974 17.8279 13.113 17.4492 12.699L12.4096 7.42872C12.1343 7.13306 11.8244 7 11.432 7C10.6472 7 10 7.68744 10 8.51532C10 8.93664 10.1583 9.3284 10.4682 9.64626L14.6885 13.9852L10.4682 18.3464C10.1652 18.6642 10 19.056 10 19.4846C10 20.3126 10.6472 21 11.432 21C11.8176 21 12.1274 20.8596 12.4096 20.5712L17.4492 15.2936C17.8348 14.8796 18 14.4878 18 14Z" fill="#252525"/>
</svg>
