<svg width="128" height="128" viewBox="0 0 128 128" fill="none" xmlns="http://www.w3.org/2000/svg">
<path opacity="0.8" d="M94.0014 8.02863H34.0032C19.642 8.02863 7.99991 19.6707 7.99991 34.0319V94.0301C7.99991 108.391 19.642 120.033 34.0032 120.033H94.0014C108.363 120.033 120.005 108.391 120.005 94.0301V34.0319C120.005 19.6707 108.363 8.02863 94.0014 8.02863Z" fill="url(#paint0_linear_202_20)"/>
<path d="M57.1211 26.3468H71.7051C73.304 26.3468 74.5912 27.634 74.5912 29.233V42.8849C74.5912 44.4838 73.304 45.771 71.7051 45.771H57.1211C55.5222 45.771 54.235 44.4838 54.235 42.8849V29.233C54.235 27.634 55.5222 26.3468 57.1211 26.3468Z" fill="#252525"/>
<path d="M28.4589 26.3468H43.0429C44.6418 26.3468 45.929 27.634 45.929 29.233V42.8849C45.929 44.4838 44.6418 45.771 43.0429 45.771H28.4589C26.86 45.771 25.5728 44.4838 25.5728 42.8849V29.233C25.5728 27.634 26.86 26.3468 28.4589 26.3468Z" fill="#252525"/>
<path d="M84.9579 26.3468H99.5419C101.141 26.3468 102.428 27.634 102.428 29.233V42.8849C102.428 44.4838 101.141 45.771 99.5419 45.771H84.9579C83.359 45.771 82.0718 44.4838 82.0718 42.8849V29.233C82.0718 27.634 83.359 26.3468 84.9579 26.3468Z" fill="#252525"/>
<path d="M28.4589 54.3167H43.0429C44.6418 54.3167 45.929 55.6038 45.929 57.2028V70.8547C45.929 72.4536 44.6418 73.7408 43.0429 73.7408H28.4589C26.86 73.7408 25.5728 72.4536 25.5728 70.8547V57.2028C25.5728 55.6038 26.86 54.3167 28.4589 54.3167Z" fill="#252525"/>
<path d="M57.1211 54.3167H71.7051C73.304 54.3167 74.5912 55.6038 74.5912 57.2028V70.8547C74.5912 72.4536 73.304 73.7408 71.7051 73.7408H57.1211C55.5222 73.7408 54.235 72.4536 54.235 70.8547V57.2028C54.235 55.6038 55.5222 54.3167 57.1211 54.3167Z" fill="#252525"/>
<path d="M84.9579 54.3167H99.5419C101.141 54.3167 102.428 55.6038 102.428 57.2028V70.8547C102.428 72.4536 101.141 73.7408 99.5419 73.7408H84.9579C83.359 73.7408 82.0718 72.4536 82.0718 70.8547V57.2028C82.0718 55.6038 83.359 54.3167 84.9579 54.3167Z" fill="#252525"/>
<path d="M28.4589 82.2971H43.0429C44.6418 82.2971 45.929 83.5842 45.929 85.1832V98.8351C45.929 100.434 44.6418 101.721 43.0429 101.721H28.4589C26.86 101.721 25.5728 100.434 25.5728 98.8351V85.1832C25.5728 83.5842 26.86 82.2971 28.4589 82.2971Z" fill="#252525"/>
<path d="M57.1211 82.2971H71.7051C73.304 82.2971 74.5912 83.5842 74.5912 85.1832V98.8351C74.5912 100.434 73.304 101.721 71.7051 101.721H57.1211C55.5222 101.721 54.235 100.434 54.235 98.8351V85.1832C54.235 83.5842 55.5222 82.2971 57.1211 82.2971Z" fill="#252525"/>
<path d="M84.9579 82.2971H99.5419C101.141 82.2971 102.428 83.5842 102.428 85.1832V98.8351C102.428 100.434 101.141 101.721 99.5419 101.721H84.9579C83.359 101.721 82.0718 100.434 82.0718 98.8351V85.1832C82.0718 83.5842 83.359 82.2971 84.9579 82.2971Z" fill="#252525"/>
<defs>
<linearGradient id="paint0_linear_202_20" x1="59.9971" y1="114.087" x2="59.9971" y2="14.0909" gradientUnits="userSpaceOnUse">
<stop stop-color="#B7B7B7"/>
<stop offset="1" stop-color="#F1F1F1"/>
</linearGradient>
</defs>
</svg>
