<svg width="28" height="28" viewBox="0 0 28 28" fill="none" xmlns="http://www.w3.org/2000/svg">
<path d="M14 18C14.5026 17.9931 14.887 17.8279 15.301 17.4492L20.5713 12.4096C20.8669 12.1343 21 11.8244 21 11.432C21 10.6472 20.3126 10 19.4847 10C19.0634 10 18.6716 10.1583 18.3537 10.4682L14.0148 14.6885L9.6536 10.4682C9.3358 10.1652 8.944 10 8.5154 10C7.6874 10 7 10.6472 7 11.432C7 11.8176 7.1404 12.1274 7.4288 12.4096L12.7064 17.4492C13.1204 17.8348 13.5122 18 14 18Z" fill="#252525" fill-opacity="0.5"/>
</svg>
